# xmcd CD database file
#
# Track frame offsets:
#	150
#	10188
#	38130
#	51323
#	62082
#	76593
#	90377
#	105006
#	118213
#	131510
#	142905
#	156088
#	170416
#	183812
#	197906
#	212430
#	226952
#	242251
#	255100
#	269326
#	283596
#	297482
#
# Disc length: 4151 seconds
#
# Revision: 0
# Processed by: cddbd v1.5.2PL0 Copyright (c) Steve Scherf et al.
# Submitted via: CDex 1.77
#
DISCID=1c103516
DTITLE=Various Artist - MKOM Cool Jazz CD2
DYEAR=2015
DGENRE=Jazz
TTITLE0=Lionel Hampton and His Orchestra - When Lights Are Low
TTITLE1=Stan Getz and Charlie Byrd - Samba De Uma Nota So
TTITLE2=John Kirby Quartet - Undecided
TTITLE3=Anita O'Day - Ain't Missbehavin'
TTITLE4=Ella Fitzgerald with Louis Armstrong - Frim Fram Sauce
TTITLE5=Barney Bigard and His Jazzopators feat Cootie Williams - Caravan
TTITLE6=The George Shearing Quintet - September In The Rain
TTITLE7=The George Shearing Trio - The Nearness Of You
TTITLE8=Billie Holiday - God Bless The Child
TTITLE9=Dizzie Gillespie with Milt Jackson and Ted Brown - Our Delight
TTITLE10=Don Byas with Hot Lips Page and His Orchestra - These Foolish Things
TTITLE11=Duke Ellington - It Don't Mean A Thing If It Ain't Got That Swing
TTITLE12=Slim Gaillard and His Orchestra - Popity Pop
TTITLE13=Johnny Hodges with Duke Ellington - Moon Glow
TTITLE14=Sarah Vaughan - It's Magic
TTITLE15=Count Basie with Lester Young and Shad Collins - You Can Depend On Me
TTITLE16=Coleman Hawkins and His Orchestra - How Deep Is The Ocean?
TTITLE17=Ivie Anderson with Duke Ellington and His Orchestra - I Don't Mind
TTITLE18=Sarah Vaughan with The George Treadwell Allstars - East Of The Sun
TTITLE19=Coleman Hawkins and His Quintet - I Only Have Eyes For You
TTITLE20=Wardell Gray Quartet feat Wardell Gray and Dodo Marmarosa - Easy Swing
TTITLE21=Sonny Berman with His Big Eight - Curbstone Shuffle
EXTD=YEAR: 2015
EXTT0=
EXTT1=
EXTT2=
EXTT3=
EXTT4=
EXTT5=
EXTT6=
EXTT7=
EXTT8=
EXTT9=
EXTT10=
EXTT11=
EXTT12=
EXTT13=
EXTT14=
EXTT15=
EXTT16=
EXTT17=
EXTT18=
EXTT19=
EXTT20=
EXTT21=
PLAYORDER=
